<?xml version="1.0" encoding="UTF-8"?>
<svg width="25px" height="33px" viewBox="0 0 25 33" version="1.1" xmlns="http://www.w3.org/2000/svg" xmlns:xlink="http://www.w3.org/1999/xlink">
    <!-- Generator: sketchtool 49.3 (51167) - http://www.bohemiancoding.com/sketch -->
    <title>FE050E48-39F0-4460-A9FF-B09D40AA9293</title>
    <desc>Created with sketchtool.</desc>
    <defs></defs>
    <g id="3.0-none-new-logo" stroke="none" stroke-width="1" fill="none" fill-rule="evenodd">
        <g id="Choice-a-category" transform="translate(-598.000000, -484.000000)" fill="#FFFFFF" fill-rule="nonzero">
            <g id="Rectangle-9" transform="translate(274.000000, 99.000000)">
                <g id="Group-7">
                    <g id="Group-2" transform="translate(30.000000, 301.000000)">
                        <g id="Group-5" transform="translate(256.000000, 51.000000)">
                            <g id="bubble" transform="translate(38.000000, 33.000000)">
                                <path d="M22.1153846,4.83398438 L2.88461538,4.83398438 C1.41416667,5.218125 0.279294872,6.46103906 0.0451923077,7.9921875 L24.9547436,7.9921875 C24.7207051,6.46103906 23.5858333,5.218125 22.1153846,4.83398438 Z" id="Shape"></path>
                                <rect id="Rectangle-path" x="2.88461538" y="0" width="19.2307692" height="2.90039062"></rect>
                                <path d="M20.1923077,27.1992188 C19.6621154,27.1992188 19.2307692,27.6329238 19.2307692,28.1660156 C19.2307692,28.6991074 19.6621154,29.1328125 20.1923077,29.1328125 C20.7225,29.1328125 21.1538462,28.6991074 21.1538462,28.1660156 C21.1538462,27.6329238 20.7225,27.1992188 20.1923077,27.1992188 Z" id="Shape"></path>
                                <path d="M24.0384615,16.6933594 C22.8553205,16.6933594 21.7173077,17.1317051 20.8340385,17.9276367 L20.1923077,18.5059746 L19.5505769,17.9276367 C18.6672436,17.1317051 17.5292308,16.6933594 16.3461538,16.6933594 C15.1630769,16.6933594 14.0250641,17.1317051 13.1417308,17.9276367 L12.5,18.5059746 L11.8582692,17.9276367 C10.9749359,17.1317051 9.83692308,16.6933594 8.65384615,16.6933594 C7.47076923,16.6933594 6.33275641,17.1317051 5.44942308,17.9276367 L4.80769231,18.5059746 L4.16596154,17.9276367 C3.28262821,17.1317051 2.14461538,16.6933594 0.961538462,16.6933594 C0.636217949,16.6933594 0.31474359,16.7267461 0,16.7912637 L0,29.1328125 C0,31.2597656 1.73076923,33 3.84615385,33 L21.1538462,33 C23.2692308,33 25,31.2597656 25,29.1328125 L25,16.7912637 C24.6851923,16.7267461 24.3637821,16.6933594 24.0384615,16.6933594 Z M4.80769231,31.0664062 C3.21711538,31.0664062 1.92307692,29.765291 1.92307692,28.1660156 C1.92307692,26.5667402 3.21711538,25.265625 4.80769231,25.265625 C6.39826923,25.265625 7.69230769,26.5667402 7.69230769,28.1660156 C7.69230769,29.765291 6.39826923,31.0664062 4.80769231,31.0664062 Z M5.76923077,21.5273438 C5.76923077,19.9280684 7.06326923,18.6269531 8.65384615,18.6269531 C10.2444231,18.6269531 11.5384615,19.9280684 11.5384615,21.5273438 C11.5384615,23.1266191 10.2444231,24.4277344 8.65384615,24.4277344 C7.06326923,24.4277344 5.76923077,23.1266191 5.76923077,21.5273438 Z M12.5,31.0664062 C10.9094231,31.0664062 9.61538462,29.765291 9.61538462,28.1660156 C9.61538462,26.5667402 10.9094231,25.265625 12.5,25.265625 C14.0905769,25.265625 15.3846154,26.5667402 15.3846154,28.1660156 C15.3846154,29.765291 14.0905769,31.0664062 12.5,31.0664062 Z M13.4615385,21.5273438 C13.4615385,19.9280684 14.7555769,18.6269531 16.3461538,18.6269531 C17.9367308,18.6269531 19.2307692,19.9280684 19.2307692,21.5273438 C19.2307692,23.1266191 17.9367308,24.4277344 16.3461538,24.4277344 C14.7555769,24.4277344 13.4615385,23.1266191 13.4615385,21.5273438 Z M20.1923077,31.0664062 C18.6017308,31.0664062 17.3076923,29.765291 17.3076923,28.1660156 C17.3076923,26.5667402 18.6017308,25.265625 20.1923077,25.265625 C21.7828846,25.265625 23.0769231,26.5667402 23.0769231,28.1660156 C23.0769231,29.765291 21.7828846,31.0664062 20.1923077,31.0664062 Z" id="Shape"></path>
                                <path d="M16.3461538,20.5605469 C15.8159615,20.5605469 15.3846154,20.994252 15.3846154,21.5273438 C15.3846154,22.0604355 15.8159615,22.4941406 16.3461538,22.4941406 C16.8763462,22.4941406 17.3076923,22.0604355 17.3076923,21.5273438 C17.3076923,20.994252 16.8763462,20.5605469 16.3461538,20.5605469 Z" id="Shape"></path>
                                <path d="M0,9.92578125 L0,14.8300195 C0.317051282,14.7841934 0.637948718,14.7597656 0.961538462,14.7597656 C2.34474359,14.7597656 3.68378205,15.1872187 4.80769231,15.9763184 C5.93160256,15.1872187 7.27057692,14.7597656 8.65384615,14.7597656 C10.0371154,14.7597656 11.3760897,15.1872187 12.5,15.9763184 C13.6239103,15.1872187 14.9628846,14.7597656 16.3461538,14.7597656 C17.7294231,14.7597656 19.0683974,15.1872187 20.1923077,15.9763184 C21.3162179,15.1872187 22.6551923,14.7597656 24.0384615,14.7597656 C24.3620513,14.7597656 24.6828846,14.7841934 25,14.830084 L25,9.92578125 L0,9.92578125 Z" id="Shape"></path>
                                <path d="M8.65384615,20.5605469 C8.12365385,20.5605469 7.69230769,20.994252 7.69230769,21.5273438 C7.69230769,22.0604355 8.12365385,22.4941406 8.65384615,22.4941406 C9.18403846,22.4941406 9.61538462,22.0604355 9.61538462,21.5273438 C9.61538462,20.994252 9.18403846,20.5605469 8.65384615,20.5605469 Z" id="Shape"></path>
                                <path d="M12.5,27.1992188 C11.9698077,27.1992188 11.5384615,27.6329238 11.5384615,28.1660156 C11.5384615,28.6991074 11.9698077,29.1328125 12.5,29.1328125 C13.0301923,29.1328125 13.4615385,28.6991074 13.4615385,28.1660156 C13.4615385,27.6329238 13.0301923,27.1992188 12.5,27.1992188 Z" id="Shape"></path>
                                <path d="M4.80769231,27.1992188 C4.2775,27.1992188 3.84615385,27.6329238 3.84615385,28.1660156 C3.84615385,28.6991074 4.2775,29.1328125 4.80769231,29.1328125 C5.33788462,29.1328125 5.76923077,28.6991074 5.76923077,28.1660156 C5.76923077,27.6329238 5.33788462,27.1992188 4.80769231,27.1992188 Z" id="Shape"></path>
                            </g>
                        </g>
                    </g>
                </g>
            </g>
        </g>
    </g>
</svg>