<?xml version="1.0" encoding="utf-8"?>
<!-- Generator: Adobe Illustrator 21.0.0, SVG Export Plug-In . SVG Version: 6.00 Build 0)  -->
<svg version="1.1" id="Layer_1" xmlns="http://www.w3.org/2000/svg" xmlns:xlink="http://www.w3.org/1999/xlink" x="0px" y="0px"
	 viewBox="0 0 17 17" style="enable-background:new 0 0 17 17;" xml:space="preserve">
<path d="M8.5,16.1c-4.2,0-7.6-3.4-7.6-7.6s3.4-7.6,7.6-7.6s7.6,3.4,7.6,7.6S12.7,16.1,8.5,16.1z M8.5,2.1C4.9,2.1,2,5,2,8.5
	C2,12.1,4.9,15,8.5,15c3.6,0,6.5-2.9,6.5-6.5C15,5,12.1,2.1,8.5,2.1z"/>
<path d="M9,10.2c-0.6,0-1.1-0.5-1.1-1.1V5.5c0-0.6,0.5-1.1,1.1-1.1s1.1,0.5,1.1,1.1v3.6C10.1,9.7,9.6,10.2,9,10.2z"/>
<path d="M10.3,11.2H9c-0.6,0-1.1-0.5-1.1-1.1S8.4,9.1,9,9.1h1.3c0.6,0,1.1,0.5,1.1,1.1S10.9,11.2,10.3,11.2z"/>
<title>56BD7F0A-D4E5-41F7-B641-92ADC050B0C4</title>
<desc>Created with sketchtool.</desc>
</svg>
