<?xml version="1.0" encoding="utf-8"?>
<!-- Generator: Adobe Illustrator 21.0.0, SVG Export Plug-In . SVG Version: 6.00 Build 0)  -->
<svg version="1.1" id="Layer_1" xmlns="http://www.w3.org/2000/svg" xmlns:xlink="http://www.w3.org/1999/xlink" x="0px" y="0px"
	 viewBox="0 0 11.4 11.4" style="enable-background:new 0 0 11.4 11.4;" xml:space="preserve">
<title>2CB4CA74-1D2E-409D-AB18-9650B3453A0A</title>
<g>
	<path d="M11.2,0.1L11.2,0.1c0.2,0.2,0.2,0.5,0,0.7L0.9,11.2c-0.2,0.2-0.5,0.2-0.7,0C0,11,0,10.7,0.1,10.5L10.5,0.1
		C10.7,0,11,0,11.2,0.1z"/>
	<path d="M0.1,0.1L0.1,0.1C0.3,0,0.7,0,0.9,0.1l10.4,10.4c0.2,0.2,0.2,0.5,0,0.7c-0.2,0.2-0.5,0.2-0.7,0L0.1,0.9
		C0,0.7,0,0.3,0.1,0.1z"/>
</g>
</svg>
