<?xml version="1.0" encoding="UTF-8"?>
<svg width="50px" height="34px" viewBox="0 0 50 34" version="1.1" xmlns="http://www.w3.org/2000/svg" xmlns:xlink="http://www.w3.org/1999/xlink">
    <!-- Generator: sketchtool 49.3 (51167) - http://www.bohemiancoding.com/sketch -->
    <title>D32D13D4-1422-420A-B7DA-156B6605479F</title>
    <desc>Created with sketchtool.</desc>
    <defs></defs>
    <g id="3.0-none-new-logo" stroke="none" stroke-width="1" fill="none" fill-rule="evenodd">
        <g id="Main-page" transform="translate(-183.000000, -588.000000)" fill="#FFFFFF" fill-rule="nonzero">
            <g id="Group-4" transform="translate(78.000000, 525.000000)">
                <g id="Rectangle-6">
                    <g id="Group-5" transform="translate(80.000000, 30.000000)">
                        <g id="trophy" transform="translate(25.333333, 33.333333)">
                            <g id="email-filled-closed-envelope">
                                <path d="M24.5614902,19.7850293 L24.5719788,19.7850293 C24.9414804,19.7850293 25.3066585,19.6772561 25.6020997,19.4810268 L25.6822451,19.4292732 C25.6996993,19.4178439 25.7179542,19.407461 25.7362892,19.3951463 L26.6696912,18.6188415 L48.948598,0.136909756 C48.9024804,0.0729219512 48.8239363,0.0291365854 48.740268,0.0291365854 L0.258851307,0.0291365854 C0.198722222,0.0291365854 0.142916667,0.0510292683 0.0984803922,0.0878121951 L23.4075082,19.4011829 C23.701268,19.6457049 24.1204101,19.7850293 24.5614902,19.7850293 Z M0,2.64796829 L0,30.0436024 L16.6976307,16.4837415 L0,2.64796829 Z M32.3198235,16.575739 L49,30.0506049 L49,2.73908049 L32.3198235,16.575739 Z M27.0165343,20.9739146 C26.3515915,21.5223585 25.4818415,21.8246707 24.5684559,21.8246707 C23.6516275,21.8246707 22.7826781,21.5241293 22.1194967,20.978261 L18.2951748,17.8075244 L0,32.6624341 L0,32.7096805 C0,32.8507756 0.12025817,32.9707829 0.262294118,32.9707829 L48.7411487,32.9707829 C48.8805425,32.9707829 48.9999199,32.8507756 48.9999199,32.7087951 L48.9999199,32.6650098 L30.720518,17.9004878 L27.0165343,20.9739146 Z" id="Shape"></path>
                            </g>
                        </g>
                    </g>
                </g>
            </g>
        </g>
    </g>
</svg>