<?xml version="1.0" encoding="UTF-8"?>
<svg width="14px" height="14px" viewBox="0 0 14 14" version="1.1" xmlns="http://www.w3.org/2000/svg" xmlns:xlink="http://www.w3.org/1999/xlink">
    <!-- Generator: sketchtool 49.3 (51167) - http://www.bohemiancoding.com/sketch -->
    <title>85A6942F-A937-4CD5-A5BF-5C009AB476C7</title>
    <desc>Created with sketchtool.</desc>
    <defs></defs>
    <g id="3.0-none-new-logo" stroke="none" stroke-width="1" fill="none" fill-rule="evenodd">
        <g id="Main-page" transform="translate(-70.000000, -28.000000)" fill="#D8D8D8" fill-rule="nonzero">
            <g id="musica-searcher-(2)" transform="translate(70.000000, 28.000000)">
                <path d="M13.6199363,11.9699442 L10.5868446,8.93690837 C10.5707251,8.92078884 10.5518167,8.90952191 10.5349721,8.89451793 C11.1317849,7.98920319 11.4801116,6.90551394 11.4801116,5.74011155 C11.4801116,2.56992032 8.91019124,0 5.74005578,0 C2.56992032,0 0,2.56992032 0,5.74005578 C0,8.91013546 2.56986454,11.4801116 5.74,11.4801116 C6.90545817,11.4801116 7.98909163,11.1317849 8.89440637,10.5349721 C8.90941036,10.551761 8.92062151,10.5706693 8.93674104,10.5867888 L11.9698884,13.6199363 C12.4255299,14.0755219 13.164239,14.0755219 13.6199363,13.6199363 C14.0755219,13.1642948 14.0755219,12.4255857 13.6199363,11.9699442 Z M5.74005578,9.49021514 C3.66883665,9.49021514 1.98984064,7.81121912 1.98984064,5.74005578 C1.98984064,3.66883665 3.66889243,1.98984064 5.74005578,1.98984064 C7.81116335,1.98984064 9.49021514,3.66889243 9.49021514,5.74005578 C9.49021514,7.81121912 7.81116335,9.49021514 5.74005578,9.49021514 Z" id="Shape"></path>
            </g>
        </g>
    </g>
</svg>