<?xml version="1.0" encoding="UTF-8"?>
<svg width="42px" height="40px" viewBox="0 0 42 40" version="1.1" xmlns="http://www.w3.org/2000/svg" xmlns:xlink="http://www.w3.org/1999/xlink">
    <!-- Generator: sketchtool 49.3 (51167) - http://www.bohemiancoding.com/sketch -->
    <title>5FFB96A8-4813-4CA9-A04C-BE473ABB78B7</title>
    <desc>Created with sketchtool.</desc>
    <defs></defs>
    <g id="3.0-none-new-logo" stroke="none" stroke-width="1" fill="none" fill-rule="evenodd">
        <g id="Main-page" transform="translate(-1080.000000, -180.000000)" fill="#FFFFFF" fill-rule="nonzero">
            <g id="Group-4" transform="translate(970.000000, 120.000000)">
                <g id="Rectangle-6">
                    <g id="Group-5" transform="translate(81.000000, 30.000000)">
                        <g id="star" transform="translate(29.000000, 30.000000)">
                            <path d="M21.9930623,0.658852939 L27.3354115,13.2868676 L41.0125151,14.4603148 C41.9611163,14.5421332 42.3470245,15.7241929 41.62695,16.3464429 L31.252703,25.3227759 L34.3615276,38.67639 C34.5771188,39.6043822 33.570308,40.3342879 32.7553734,39.8412248 L21.001343,32.7617854 L9.24731252,39.8412248 C8.43022199,40.3321348 7.42556715,39.6022291 7.64115832,38.67639 L10.749983,25.3227759 L0.37358006,16.3442897 C-0.346494439,15.7220397 0.0372578388,14.5399801 0.988014888,14.4581617 L14.6651186,13.2847145 L20.0074677,0.658852939 C20.3782845,-0.219617646 21.6222455,-0.219617646 21.9930623,0.658852939 Z" id="Shape"></path>
                        </g>
                    </g>
                </g>
            </g>
        </g>
    </g>
</svg>