<?xml version="1.0" standalone="no"?>
<!DOCTYPE svg PUBLIC "-//W3C//DTD SVG 20010904//EN"
 "http://www.w3.org/TR/2001/REC-SVG-20010904/DTD/svg10.dtd">
<svg version="1.0" xmlns="http://www.w3.org/2000/svg"
 width="700.000000pt" height="700.000000pt" viewBox="0 0 700.000000 700.000000"
 preserveAspectRatio="xMidYMid meet">
<metadata>
Created by potrace 1.11, written by Peter Selinger 2001-2013
</metadata>
<g transform="translate(0.000000,700.000000) scale(0.100000,-0.100000)"
fill="#000000" stroke="none">
<path d="M0 3500 l0 -3500 3500 0 3500 0 0 3500 0 3500 -3500 0 -3500 0 0
-3500z m3891 2116 c566 -90 1072 -401 1369 -842 29 -41 50 -77 48 -79 -10 -10
-655 -379 -668 -382 -11 -3 -29 15 -55 53 -115 174 -360 349 -600 427 -141 47
-212 58 -400 64 -154 4 -198 2 -301 -15 -277 -48 -496 -159 -690 -352 -243
-242 -365 -532 -381 -906 -24 -557 251 -1026 731 -1249 163 -76 304 -109 527
-127 479 -37 886 113 1125 415 62 78 137 214 168 305 l15 42 -614 0 -615 0 0
355 0 355 1022 0 1021 0 -7 -251 c-7 -271 -24 -427 -61 -584 -87 -366 -240
-634 -505 -888 -303 -291 -656 -455 -1115 -519 -116 -17 -521 -16 -645 1 -381
51 -718 185 -1005 401 -320 241 -577 579 -709 934 -88 235 -126 464 -126 759
0 588 185 1050 585 1465 364 378 793 585 1310 632 129 12 463 4 576 -14z"/>
</g>
</svg>
