<?xml version="1.0" encoding="UTF-8"?>
<svg width="16px" height="17px" viewBox="0 0 16 17" version="1.1" xmlns="http://www.w3.org/2000/svg">
    <!-- Generator: sketchtool 49.3 (51167) - http://www.bohemiancoding.com/sketch -->
    <title>8FD16303-603B-4CFA-9183-9A55C7C9D571</title>
    <desc>Created with sketchtool.</desc>
    <defs></defs>
    <g id="3.0-none-new-logo" stroke="none" stroke-width="1" fill="none" fill-rule="evenodd">
        <g id="Main-page" transform="translate(-1215.000000, -26.000000)" fill="#9B9B9B" fill-rule="nonzero" stroke="#D8D8D8">
            <g id="logout" transform="translate(1216.000000, 27.000000)">
                <path d="M6.74751945,14.1165254 L2.81021968,14.1165254 C1.7401968,14.1165254 0.872004577,13.2521186 0.872004577,12.1938559 L0.872004577,2.78072034 C0.872004577,1.71927966 1.74340046,0.858050847 2.81021968,0.858050847 L6.81159268,0.858050847 C7.05186728,0.858050847 7.24408696,0.667372881 7.24408696,0.429025424 C7.24408696,0.190677966 7.05186728,0 6.81159268,0 L2.81021968,0 C1.26285126,0 0.00701601831,1.24894068 0.00701601831,2.78072034 L0.00701601831,12.1938559 C0.00701601831,13.7288136 1.26605492,14.9745763 2.81021968,14.9745763 L6.74751945,14.9745763 C6.98779405,14.9745763 7.18001373,14.7838983 7.18001373,14.5455508 C7.18001373,14.3072034 6.98459039,14.1165254 6.74751945,14.1165254 Z" id="Shape"></path>
                <path d="M13.8724622,7.18538136 L11.1237208,4.45868644 C10.9539268,4.29025424 10.6816156,4.29025424 10.5118215,4.45868644 C10.3420275,4.62711864 10.3420275,4.89724576 10.5118215,5.06567797 L12.5237208,7.06144068 L3.74889245,7.06144068 C3.50861785,7.06144068 3.31639817,7.25211864 3.31639817,7.4904661 C3.31639817,7.72881356 3.50861785,7.91949153 3.74889245,7.91949153 L12.5237208,7.91949153 L10.5118215,9.91525424 C10.3420275,10.0836864 10.3420275,10.3538136 10.5118215,10.5222458 C10.5951167,10.6048729 10.7072449,10.6493644 10.8161693,10.6493644 C10.9250938,10.6493644 11.037222,10.6080508 11.1205172,10.5222458 L13.8692586,7.79555085 C14.0422563,7.62394068 14.0422563,7.35063559 13.8724622,7.18538136 Z" id="Shape"></path>
            </g>
        </g>
    </g>
</svg>
