<?xml version="1.0" encoding="utf-8"?>
<!-- Generator: Adobe Illustrator 22.1.0, SVG Export Plug-In . SVG Version: 6.00 Build 0)  -->
<svg version="1.1" id="Layer_1" xmlns="http://www.w3.org/2000/svg" xmlns:xlink="http://www.w3.org/1999/xlink" x="0px" y="0px"
	 viewBox="0 0 700 700" enable-background="new 0 0 700 700" xml:space="preserve">
<rect fill="#FFFFFF" stroke="#000000" stroke-miterlimit="10" width="700" height="700"/>
<path fill="#5291FF" d="M0,350v350h350h350V350V0H350H0V350z M389.1,138.4c56.6,9,107.2,40.1,136.9,84.2c2.9,4.1,5,7.7,4.8,7.9
	c-1,1-65.5,37.9-66.8,38.2c-1.1,0.3-2.9-1.5-5.5-5.3c-11.5-17.4-36-34.9-60-42.7c-14.1-4.7-21.2-5.8-40-6.4
	c-15.4-0.4-19.8-0.2-30.1,1.5c-27.7,4.8-49.6,15.9-69,35.2c-24.3,24.2-36.5,53.2-38.1,90.6c-2.4,55.7,25.1,102.6,73.1,124.9
	c16.3,7.6,30.4,10.9,52.7,12.7c47.9,3.7,88.6-11.3,112.5-41.5c6.2-7.8,13.7-21.4,16.8-30.5l1.5-4.2h-61.4H355v-35.5V332h102.2h102.1
	l-0.7,25.1c-0.7,27.1-2.4,42.7-6.1,58.4c-8.7,36.6-24,63.4-50.5,88.8c-30.3,29.1-65.6,45.5-111.5,51.9c-11.6,1.7-52.1,1.6-64.5-0.1
	c-38.1-5.1-71.8-18.5-100.5-40.1c-32-24.1-57.7-57.9-70.9-93.4c-8.8-23.5-12.6-46.4-12.6-75.9c0-58.8,18.5-105,58.5-146.5
	c36.4-37.8,79.3-58.5,131-63.2C344.4,135.8,377.8,136.6,389.1,138.4z"/>
</svg>
