<?xml version="1.0" encoding="utf-8"?><svg xmlns="http://www.w3.org/2000/svg" xmlns:xlink="http://www.w3.org/1999/xlink"><symbol viewBox="0 0 25 33" id="bubble" xmlns="http://www.w3.org/2000/svg"><path d="M22.115 4.834H2.885a3.882 3.882 0 0 0-2.84 3.158h24.91a3.881 3.881 0 0 0-2.84-3.158zM2.885 0h19.231v2.9H2.885zm17.307 27.2a.965.965 0 0 0-.961.966c0 .533.431.967.961.967s.962-.434.962-.967a.965.965 0 0 0-.962-.967z"/><path d="M24.038 16.693a4.78 4.78 0 0 0-3.204 1.235l-.642.578-.641-.578a4.781 4.781 0 0 0-6.41 0l-.641.578-.642-.578a4.781 4.781 0 0 0-6.409 0l-.641.578-.642-.578A4.781 4.781 0 0 0 0 16.79v12.342C0 31.26 1.73 33 3.846 33h17.308C23.269 33 25 31.26 25 29.133V16.79a4.784 4.784 0 0 0-.962-.098zM4.808 31.066a2.896 2.896 0 0 1-2.885-2.9c0-1.6 1.294-2.9 2.885-2.9a2.896 2.896 0 0 1 2.884 2.9c0 1.6-1.294 2.9-2.884 2.9zm.961-9.539c0-1.599 1.294-2.9 2.885-2.9a2.896 2.896 0 0 1 2.884 2.9c0 1.6-1.294 2.9-2.884 2.9a2.896 2.896 0 0 1-2.885-2.9zm6.731 9.54a2.896 2.896 0 0 1-2.885-2.901c0-1.6 1.294-2.9 2.885-2.9a2.896 2.896 0 0 1 2.885 2.9c0 1.6-1.294 2.9-2.885 2.9zm.962-9.54c0-1.599 1.294-2.9 2.884-2.9a2.896 2.896 0 0 1 2.885 2.9c0 1.6-1.294 2.9-2.885 2.9a2.896 2.896 0 0 1-2.884-2.9zm6.73 9.54a2.896 2.896 0 0 1-2.884-2.901c0-1.6 1.294-2.9 2.884-2.9a2.896 2.896 0 0 1 2.885 2.9c0 1.6-1.294 2.9-2.885 2.9z"/><path d="M16.346 20.56a.965.965 0 0 0-.961.967c0 .533.431.967.961.967s.962-.434.962-.967a.965.965 0 0 0-.962-.966zM0 9.926v4.904a6.687 6.687 0 0 1 4.808 1.146 6.686 6.686 0 0 1 7.692 0 6.686 6.686 0 0 1 7.692 0A6.686 6.686 0 0 1 25 14.83V9.926H0zM8.654 20.56a.965.965 0 0 0-.962.967c0 .533.432.967.962.967s.961-.434.961-.967a.965.965 0 0 0-.961-.966zM12.5 27.2a.965.965 0 0 0-.962.966c0 .533.432.967.962.967s.962-.434.962-.967a.965.965 0 0 0-.962-.967zm-7.692 0a.965.965 0 0 0-.962.966c0 .533.431.967.962.967.53 0 .961-.434.961-.967a.965.965 0 0 0-.961-.967z"/></symbol><symbol viewBox="0 0 18 14" id="check" xmlns="http://www.w3.org/2000/svg"><path d="M1.185 7.6A.64.64 0 0 1 1 7.18c0-.12.062-.3.185-.42l.861-.84a.605.605 0 0 1 .862 0l.061.06 3.385 3.54c.123.12.308.12.43 0l8.247-8.34h.061a.605.605 0 0 1 .862 0l.861.84a.57.57 0 0 1 0 .84L6.97 12.82a.565.565 0 0 1-.43.18.565.565 0 0 1-.431-.18l-4.8-5.04-.123-.18z"/></symbol><symbol id="chevron-up" viewBox="0 0 12 6.3" xmlns="http://www.w3.org/2000/svg"><style>.cst0{fill:#fff}</style><path class="cst0" d="M11 6.3c-.2 0-.4-.1-.6-.2L6 2.6 1.6 6.1c-.4.3-1 .2-1.4-.2-.3-.4-.3-1.1.2-1.4L6 0l5.6 4.5c.4.3.5 1 .2 1.4-.2.3-.5.4-.8.4z"/></symbol><symbol viewBox="0 0 17 17" id="clock" xmlns="http://www.w3.org/2000/svg"><path d="M8.5 16.1C4.3 16.1.9 12.7.9 8.5S4.3.9 8.5.9s7.6 3.4 7.6 7.6-3.4 7.6-7.6 7.6zm0-14C4.9 2.1 2 5 2 8.5 2 12.1 4.9 15 8.5 15S15 12.1 15 8.5c0-3.5-2.9-6.4-6.5-6.4z"/><path d="M9 10.2c-.6 0-1.1-.5-1.1-1.1V5.5c0-.6.5-1.1 1.1-1.1s1.1.5 1.1 1.1v3.6c0 .6-.5 1.1-1.1 1.1z"/><path d="M10.3 11.2H9c-.6 0-1.1-.5-1.1-1.1s.5-1 1.1-1h1.3c.6 0 1.1.5 1.1 1.1s-.5 1-1.1 1z"/></symbol><symbol viewBox="0 0 11.4 11.4" id="cross" xmlns="http://www.w3.org/2000/svg"><path d="M11.2.1c.2.2.2.5 0 .7L.9 11.2c-.2.2-.5.2-.7 0-.2-.2-.2-.5-.1-.7L10.5.1c.2-.1.5-.1.7 0z"/><path d="M.1.1c.2-.1.6-.1.8 0l10.4 10.4c.2.2.2.5 0 .7-.2.2-.5.2-.7 0L.1.9C0 .7 0 .3.1.1z"/></symbol><symbol viewBox="0 0 34 34" id="cup-star" xmlns="http://www.w3.org/2000/svg"><path d="M32 2h-5V.333H7V2H2C1 2 .333 2.667.333 3.667v4c0 3.833 2.834 7 6.667 7.5v.166c0 4.834 3.333 8.834 7.833 9.834l-1.166 3.5H9.833c-.666 0-1.333.5-1.5 1.166L7 33.667h20l-1.333-3.834c-.167-.666-.834-1.166-1.5-1.166h-3.834l-1.166-3.5c4.5-1 7.833-5 7.833-9.834v-.166c3.833-.5 6.667-3.667 6.667-7.5v-4C33.667 2.667 33 2 32 2zM7 11.833c-1.833-.5-3.333-2.166-3.333-4.166V5.333H7v6.5zM20.333 17L17 15.167 13.667 17l.833-3.333-2.5-3.334h3.5L17 7l1.5 3.333H22l-2.5 3.334.833 3.333zm10-9.333c0 2-1.5 3.833-3.333 4.166v-6.5h3.333v2.334z"/></symbol><symbol viewBox="0 0 50 34" id="envelope" xmlns="http://www.w3.org/2000/svg"><path d="M24.895 20.118h.01c.37 0 .735-.107 1.03-.304l.08-.051.055-.035.933-.776L49.282.47a.261.261 0 0 0-.208-.108H.592a.25.25 0 0 0-.16.06L23.74 19.734c.294.244.713.383 1.154.383zM.333 2.981v27.396l16.698-13.56L.333 2.981zm32.32 13.928l16.68 13.475V3.072L32.653 16.91zm-5.303 4.398c-.665.549-1.535.851-2.448.851-.917 0-1.786-.3-2.45-.846L18.63 18.14.333 32.996v.047c0 .141.12.261.263.261h48.478c.14 0 .26-.12.26-.262v-.044l-18.28-14.764-3.704 3.073z"/></symbol><symbol viewBox="0 0 42 40" id="gift" xmlns="http://www.w3.org/2000/svg"><path d="M39.333 21.333v15.715c0 1.445-1.185 2.619-2.639 2.619H23.5V21.333h15.833zM2.77 10.955h8.24c-.59-.408-1.099-.812-1.453-1.174-2.101-2.13-2.101-5.597 0-7.727 2.042-2.075 5.6-2.07 7.638 0 1.13 1.143 4.125 5.794 3.711 8.9h.188c-.412-3.106 2.583-7.757 3.71-8.9 2.042-2.07 5.6-2.07 7.639 0 2.099 2.13 2.099 5.597.002 7.727-.356.362-.864.766-1.455 1.174h8.24c1.434 0 2.603 1.179 2.603 2.626v3.94c0 .724-.583 1.312-1.302 1.312H23.604v-5.252h-5.208v5.252H1.469A1.308 1.308 0 0 1 .167 17.52v-3.94c0-1.446 1.166-2.625 2.604-2.625zm20.988-.087s.11.087.482.087c1.8 0 5.234-1.886 6.356-3.026a2.882 2.882 0 0 0 0-4.023 2.754 2.754 0 0 0-1.974-.83c-.742 0-1.442.294-1.971.83-1.755 1.78-3.5 6.329-2.893 6.962zm-5.995.087c.37 0 .48-.085.48-.087.606-.633-1.139-5.182-2.894-6.962-1.05-1.07-2.885-1.075-3.945 0a2.877 2.877 0 0 0 0 4.023c1.122 1.14 4.557 3.026 6.359 3.026zm.737 10.378v18.334H5.306a2.63 2.63 0 0 1-2.64-2.62V21.334H18.5z"/></symbol><symbol viewBox="0 0 35 35" id="hands" xmlns="http://www.w3.org/2000/svg"><path d="M.001 22.627h6.221v10.254H.001zm31.958-1.723c-.84-.533-1.948-.41-2.625.328l-4.512 6.891a2.11 2.11 0 0 1-1.517.656h-6.83v-2.05h6.153c1.128 0 2.05-.923 2.05-2.051a2.056 2.056 0 0 0-2.05-2.051H18.28c-.574 0-.8-.41-1.169-.677-2.506-2.203-6.16-2.339-8.839-.462v11.808c1.973.702 4.853 1.704 6.235 1.704h7.095c2.256 0 4.39-1.135 5.743-2.94l5.127-8.203c.736-.943.422-2.284-.513-2.953zM28.778 2.119h6.221v10.254h-6.221zM20.493 0h-7.096C11.142 0 9.01 1.135 7.655 2.94l-5.127 8.203c-.737.943-.422 2.284.513 2.953.84.533 1.948.41 2.625-.328l4.512-6.891a2.11 2.11 0 0 1 1.517-.656h6.83v2.05h-6.153c-1.128 0-2.05.923-2.05 2.051 0 1.128.922 2.051 2.05 2.051h4.348c.574 0 .8.41 1.169.677 2.506 2.203 6.16 2.339 8.838.462V1.704C24.755 1.002 21.874 0 20.493 0z"/><path d="M22.588 16.87a9.17 9.17 0 0 1-6.054-2.279 1.649 1.649 0 0 1-.2-.167h-3.962c-.156 0-.3-.041-.453-.059a3.31 3.31 0 0 0-.597 1.91c0 .678.217 1.292.586 1.893.168-.009.334-.038.504-.038 2.231 0 4.38.81 6.053 2.28.012 0 .097.072.201.166h2.168c1.543-1.327 2.55-2.454 2.76-3.782-.333.036-.667.076-1.006.076z"/></symbol><symbol viewBox="0 0 42 39" id="heart" xmlns="http://www.w3.org/2000/svg"><path d="M21 38.5l-2.917-2.917C7.25 26 .167 19.542.167 11.625c0-6.458 5-11.458 11.458-11.458 3.542 0 7.083 1.666 9.375 4.375C23.292 1.833 26.833.167 30.375.167c6.458 0 11.458 5 11.458 11.458 0 7.917-7.083 14.375-17.916 23.958L21 38.5z"/></symbol><symbol viewBox="0 0 16 17" id="logout" xmlns="http://www.w3.org/2000/svg"><path d="M7.748 15.117H3.81a1.933 1.933 0 0 1-1.938-1.923V3.78c0-1.062.871-1.923 1.938-1.923h4.002a.429.429 0 1 0 0-.858H3.81C2.263 1 1.007 2.249 1.007 3.78v9.414c0 1.535 1.26 2.78 2.803 2.78h3.938a.429.429 0 1 0 0-.857z"/><path d="M14.872 8.185L12.124 5.46a.434.434 0 0 0-.612 0 .425.425 0 0 0 0 .607l2.012 1.995H4.749a.429.429 0 1 0 0 .858h8.775l-2.012 1.996a.425.425 0 0 0 0 .607.437.437 0 0 0 .304.127.424.424 0 0 0 .305-.127l2.748-2.726a.426.426 0 0 0 .003-.61z"/></symbol><symbol viewBox="0 0 35 37" id="plant" xmlns="http://www.w3.org/2000/svg"><path d="M21.747 21.68a7.524 7.524 0 0 0 2.316-5.42v-1.084h-1.094A7.658 7.658 0 0 0 17.5 17.47v-5.28c.394-.32.794-.647 1.158-.94 3.058-2.458 5.268-4.1 5.268-6.772C23.926 1.967 22.004 0 19.55 0a4.437 4.437 0 0 0-3.281 1.408A4.436 4.436 0 0 0 12.988 0c-2.453 0-4.375 1.967-4.375 4.478 0 2.672 2.21 4.313 5.268 6.773.45.361.936.755 1.431 1.161v5.058a7.658 7.658 0 0 0-5.468-2.294H8.75v1.084c0 2.124.89 4.04 2.315 5.42H6.563v4.336H26.25V21.68h-4.503zM4.375 10.84V8.672H2.187v2.168H0v2.168h2.188v2.168h2.187v-2.168h2.188V10.84zm28.438 6.504v-2.168h-2.188v2.168h-2.188v2.168h2.188v2.168h2.188v-2.168H35v-2.168zM8.99 28.184L11.177 37h10.459l2.186-8.816z"/></symbol><symbol viewBox="0 0 14 14" id="search" xmlns="http://www.w3.org/2000/svg"><path d="M13.62 11.97l-3.033-3.033c-.016-.016-.035-.027-.052-.042a5.74 5.74 0 1 0-1.64 1.64c.014.017.026.036.042.052l3.033 3.033a1.167 1.167 0 0 0 1.65-1.65zM5.74 9.49a3.75 3.75 0 1 1 0-7.5 3.75 3.75 0 0 1 0 7.5z"/></symbol><symbol viewBox="0 0 42 40" id="star" xmlns="http://www.w3.org/2000/svg"><path d="M21.993.659l5.342 12.628 13.678 1.173c.948.082 1.334 1.264.614 1.886l-10.374 8.977 3.109 13.353c.215.928-.792 1.658-1.607 1.165l-11.754-7.08-11.754 7.08c-.817.491-1.821-.239-1.606-1.165l3.109-13.353L.374 16.344c-.72-.622-.337-1.804.614-1.886l13.677-1.173L20.007.659c.371-.879 1.615-.879 1.986 0z"/></symbol><symbol viewBox="0 0 41 35" id="users" xmlns="http://www.w3.org/2000/svg"><path d="M24.476 6.136a7.509 7.509 0 0 1 3.43 5.568 5.835 5.835 0 0 0 2.513.572c3.286 0 5.949-2.708 5.949-6.048 0-3.341-2.663-6.049-5.949-6.049-3.254.001-5.893 2.66-5.943 5.957zm-3.897 12.385c3.286 0 5.949-2.708 5.949-6.049 0-3.34-2.664-6.048-5.949-6.048-3.285 0-5.95 2.708-5.95 6.049 0 3.34 2.665 6.048 5.95 6.048zm2.523.412h-5.047c-4.2 0-7.617 3.475-7.617 7.746v6.277l.016.098.425.135c4.008 1.274 7.49 1.698 10.356 1.698 5.598 0 8.842-1.623 9.042-1.726l.398-.204h.042v-6.278c.002-4.27-3.415-7.746-7.615-7.746zm9.842-6.244h-5.009a7.512 7.512 0 0 1-2.262 5.192c3.733 1.13 6.464 4.65 6.464 8.807v1.934c4.945-.184 7.795-1.61 7.983-1.705l.397-.205h.043v-6.279c0-4.27-3.417-7.744-7.616-7.744zm-22.803-.412a5.838 5.838 0 0 0 3.164-.933 7.51 7.51 0 0 1 2.767-4.775c.006-.113.017-.225.017-.34 0-3.34-2.664-6.048-5.948-6.048-3.286 0-5.948 2.708-5.948 6.048s2.662 6.048 5.948 6.048zm5.342 5.604a7.516 7.516 0 0 1-2.26-5.163c-.187-.014-.37-.029-.56-.029H7.616c-4.2 0-7.616 3.474-7.616 7.744v6.278l.016.097.425.136c3.215 1.021 6.085 1.491 8.577 1.64v-1.896c.001-4.158 2.731-7.677 6.465-8.807z"/></symbol></svg>