<?xml version="1.0" encoding="UTF-8"?>
<svg width="34px" height="34px" viewBox="0 0 34 34" version="1.1" xmlns="http://www.w3.org/2000/svg" xmlns:xlink="http://www.w3.org/1999/xlink">
    <!-- Generator: sketchtool 49.3 (51167) - http://www.bohemiancoding.com/sketch -->
    <title>3A84206D-64FB-4B70-A36A-44A4E79AAA71</title>
    <desc>Created with sketchtool.</desc>
    <defs></defs>
    <g id="3.0-none-new-logo" stroke="none" stroke-width="1" fill="none" fill-rule="evenodd">
        <g id="Main-page" transform="translate(-191.000000, -183.000000)" fill="#FFFFFF" fill-rule="nonzero">
            <g id="Group-4" transform="translate(78.000000, 120.000000)">
                <g id="Rectangle-6">
                    <g id="Group-5" transform="translate(80.000000, 30.000000)">
                        <g id="trophy" transform="translate(33.333333, 33.333333)">
                            <path d="M31.6666667,1.66666667 L26.6666667,1.66666667 L26.6666667,0 L6.66666667,0 L6.66666667,1.66666667 L1.66666667,1.66666667 C0.666666667,1.66666667 0,2.33333333 0,3.33333333 L0,7.33333333 C0,11.1666667 2.83333333,14.3333333 6.66666667,14.8333333 L6.66666667,15 C6.66666667,19.8333333 10,23.8333333 14.5,24.8333333 L13.3333333,28.3333333 L9.5,28.3333333 C8.83333333,28.3333333 8.16666667,28.8333333 8,29.5 L6.66666667,33.3333333 L26.6666667,33.3333333 L25.3333333,29.5 C25.1666667,28.8333333 24.5,28.3333333 23.8333333,28.3333333 L20,28.3333333 L18.8333333,24.8333333 C23.3333333,23.8333333 26.6666667,19.8333333 26.6666667,15 L26.6666667,14.8333333 C30.5,14.3333333 33.3333333,11.1666667 33.3333333,7.33333333 L33.3333333,3.33333333 C33.3333333,2.33333333 32.6666667,1.66666667 31.6666667,1.66666667 Z M6.66666667,11.5 C4.83333333,11 3.33333333,9.33333333 3.33333333,7.33333333 L3.33333333,5 L6.66666667,5 L6.66666667,11.5 Z M20,16.6666667 L16.6666667,14.8333333 L13.3333333,16.6666667 L14.1666667,13.3333333 L11.6666667,10 L15.1666667,10 L16.6666667,6.66666667 L18.1666667,10 L21.6666667,10 L19.1666667,13.3333333 L20,16.6666667 Z M30,7.33333333 C30,9.33333333 28.5,11.1666667 26.6666667,11.5 L26.6666667,5 L30,5 L30,7.33333333 Z" id="Shape"></path>
                        </g>
                    </g>
                </g>
            </g>
        </g>
    </g>
</svg>