<?xml version="1.0" encoding="UTF-8"?>
<svg width="42px" height="40px" viewBox="0 0 42 40" version="1.1" xmlns="http://www.w3.org/2000/svg" xmlns:xlink="http://www.w3.org/1999/xlink">
    <!-- Generator: sketchtool 49.3 (51167) - http://www.bohemiancoding.com/sketch -->
    <title>6DF3168B-F52C-4D31-9B54-FD91A6911D6A</title>
    <desc>Created with sketchtool.</desc>
    <defs></defs>
    <g id="3.0-none-new-logo" stroke="none" stroke-width="1" fill="none" fill-rule="evenodd">
        <g id="Main-page" transform="translate(-779.000000, -187.000000)" fill="#FFFFFF" fill-rule="nonzero">
            <g id="Group-4" transform="translate(669.000000, 130.000000)">
                <g id="Rectangle-6">
                    <g id="Group-5" transform="translate(81.000000, 30.000000)">
                        <g id="trophy" transform="translate(29.166667, 27.500000)">
                            <g id="gift" transform="translate(20.833333, 19.583333) scale(-1, 1) translate(-20.833333, -19.583333) ">
                                <path d="M2.5,20.8333333 L2.5,36.547619 C2.5,37.9933333 3.68486111,39.1666667 5.13888889,39.1666667 L18.3333333,39.1666667 L18.3333333,20.8333333 L2.5,20.8333333 Z" id="Shape"></path>
                                <path d="M39.0625,10.454524 L30.8229167,10.454524 C31.4140625,10.0474522 31.921875,9.64300666 32.2760417,9.28058143 C34.3776042,7.15067665 34.3776042,3.68400055 32.2760417,1.55409576 C30.234375,-0.520657358 26.6770833,-0.515404819 24.6380208,1.55409576 C23.5078125,2.69652311 20.5130208,7.34764688 20.9270833,10.454524 L20.7395833,10.454524 C21.1510417,7.34764688 18.15625,2.69652311 17.0286458,1.55409576 C14.9869792,-0.515404819 11.4296875,-0.515404819 9.390625,1.55409576 C7.29166667,3.68400055 7.29166667,7.15067665 9.38802083,9.28058143 C9.74479167,9.64300666 10.2526042,10.0474522 10.84375,10.454524 L2.60416667,10.454524 C1.16927083,10.454524 0,11.6337191 0,13.0807938 L0,17.0201984 C0,17.7450489 0.583333333,18.3333333 1.30208333,18.3333333 L18.2291667,18.3333333 L18.2291667,13.0807938 L23.4375,13.0807938 L23.4375,18.3333333 L40.3645833,18.3333333 C41.0833333,18.3333333 41.6666667,17.7450489 41.6666667,17.0201984 L41.6666667,13.0807938 C41.6666667,11.6337191 40.5,10.454524 39.0625,10.454524 Z M18.0755208,10.3678571 C18.0755208,10.3678571 17.9661458,10.454524 17.59375,10.454524 C15.7942708,10.454524 12.359375,8.56886232 11.2369792,7.42906124 C10.1458333,6.3207754 10.1458333,4.51390179 11.2369792,3.40561595 C11.765625,2.86985692 12.4661458,2.5757147 13.2109375,2.5757147 C13.953125,2.5757147 14.6536458,2.86985692 15.1822917,3.40561595 C16.9375,5.18622686 18.6822917,9.7349261 18.0755208,10.3678571 Z M24.0703125,10.454524 C23.7005208,10.454524 23.5911458,10.3704834 23.5911458,10.3678571 C22.984375,9.7349261 24.7291667,5.18622686 26.484375,3.40561595 C27.5338542,2.33672415 29.3697917,2.33147161 30.4296875,3.40561595 C31.5234375,4.51390179 31.5234375,6.3207754 30.4296875,7.42906124 C29.3072917,8.56886232 25.8723958,10.454524 24.0703125,10.454524 Z" id="Shape"></path>
                                <path d="M23.3333333,20.8333333 L23.3333333,39.1666667 L36.5277778,39.1666667 C37.9844444,39.1666667 39.1666667,37.9933333 39.1666667,36.547619 L39.1666667,20.8333333 L23.3333333,20.8333333 Z" id="Shape"></path>
                            </g>
                        </g>
                    </g>
                </g>
            </g>
        </g>
    </g>
</svg>