<?xml version="1.0" encoding="UTF-8"?>
<svg width="35px" height="35px" viewBox="0 0 35 35" version="1.1" xmlns="http://www.w3.org/2000/svg" xmlns:xlink="http://www.w3.org/1999/xlink">
    <!-- Generator: sketchtool 49.3 (51167) - http://www.bohemiancoding.com/sketch -->
    <title>F90293A0-C303-4643-89E1-1E6185531255</title>
    <desc>Created with sketchtool.</desc>
    <defs></defs>
    <g id="3.0-none-new-logo" stroke="none" stroke-width="1" fill="none" fill-rule="evenodd">
        <g id="Choice-a-category" transform="translate(-465.000000, -483.000000)" fill="#FFFFFF" fill-rule="nonzero">
            <g id="Rectangle-9" transform="translate(274.000000, 99.000000)">
                <g id="Group-7">
                    <g id="Group-2" transform="translate(30.000000, 301.000000)">
                        <g id="Group-5" transform="translate(128.000000, 51.000000)">
                            <g id="multiple-users-silhouette" transform="translate(33.000000, 32.000000)">
                                <g id="hands">
                                    <rect id="Rectangle-path" x="0.0008203125" y="22.6269531" width="6.22070312" height="10.2539062"></rect>
                                    <path d="M31.9588281,20.9042285 C31.1180762,20.3711621 30.0105859,20.4941406 29.3338965,21.2324219 L24.8221777,28.1230469 C24.4325293,28.5332031 23.87875,28.7792969 23.3045996,28.7792969 C23.1610449,28.7792969 16.4754297,28.7792969 16.4754297,28.7792969 L16.4754297,26.7285156 C16.4754297,26.7285156 22.4431348,26.7285156 22.6277734,26.7285156 C23.7557031,26.7285156 24.6785547,25.8056641 24.6785547,24.6777344 C24.6785547,23.5498047 23.7557031,22.6269531 22.6277734,22.6269531 C22.6277734,22.6269531 18.3620801,22.6269531 18.2801172,22.6269531 C17.7058301,22.6269531 17.4803125,22.2167969 17.1111719,21.950127 C14.604502,19.7473828 10.9506934,19.6112109 8.27230469,21.4877441 L8.27230469,33.2960059 C10.2450879,33.9984668 13.1253418,35 14.5066113,35 L21.6023828,35 C23.8581738,35 25.9910547,33.865166 27.3445703,32.0604785 L32.4715234,23.8573535 C33.2083691,22.9141992 32.8941895,21.5725098 31.9588281,20.9042285 Z" id="Shape"></path>
                                    <rect id="Rectangle-path" x="28.7784766" y="2.11914062" width="6.22070312" height="10.2539062"></rect>
                                    <path d="M20.4931152,0 L13.3973438,0 C11.1415527,0 9.00867187,1.13483398 7.65515625,2.93952148 L2.52820313,11.1426465 C1.79135742,12.0858008 2.10553711,13.4274902 3.04089844,14.0957715 C3.88165039,14.6288379 4.98914063,14.5058594 5.66583008,13.7675781 L10.1775488,6.87695313 C10.5671973,6.46679688 11.1209766,6.22070313 11.695127,6.22070313 C11.8386816,6.22070313 18.5242969,6.22070313 18.5242969,6.22070313 L18.5242969,8.27148438 C18.5242969,8.27148438 12.5565918,8.27148438 12.3719531,8.27148438 C11.2440234,8.27148438 10.3211719,9.19433594 10.3211719,10.3222656 C10.3211719,11.4501953 11.2440234,12.3730469 12.3719531,12.3730469 C12.3719531,12.3730469 16.6376465,12.3730469 16.7196094,12.3730469 C17.2938965,12.3730469 17.5194141,12.7832031 17.8885547,13.049873 C20.3952246,15.2526172 24.0490332,15.3887891 26.7274219,13.5122559 L26.7274219,1.70392578 C24.7546387,1.0015332 21.8743848,0 20.4931152,0 Z" id="Shape"></path>
                                    <path d="M22.5877148,16.8702051 C20.3576953,16.8702051 18.207793,16.0611035 16.5344922,14.5911035 C16.5224609,14.5900781 16.4373535,14.5169336 16.3332422,14.4238281 L12.3718848,14.4238281 C12.2155469,14.4238281 12.0711035,14.3825391 11.9192773,14.3653809 C11.5472656,14.8970801 11.3225,15.5511426 11.3225,16.2743164 C11.3225,16.9527148 11.5390625,17.5667871 11.9075195,18.1682812 C12.0763672,18.1591211 12.2418652,18.1298633 12.4119434,18.1298633 C14.6429883,18.1298633 16.7928906,18.9399902 18.465166,20.4099219 C18.4771973,20.4099219 18.5623047,20.482041 18.666416,20.5761719 L20.8340918,20.5761719 C22.3774414,19.2489746 23.3831445,18.1224805 23.5948535,16.7935742 C23.260918,16.829873 22.9274609,16.8702051 22.5877148,16.8702051 Z" id="Shape"></path>
                                </g>
                            </g>
                        </g>
                    </g>
                </g>
            </g>
        </g>
    </g>
</svg>