<?xml version="1.0" encoding="UTF-8"?>
<svg width="35px" height="37px" viewBox="0 0 35 37" version="1.1" xmlns="http://www.w3.org/2000/svg" xmlns:xlink="http://www.w3.org/1999/xlink">
    <!-- Generator: sketchtool 49.3 (51167) - http://www.bohemiancoding.com/sketch -->
    <title>D3988A78-631D-41EC-B77C-3357F64B80D0</title>
    <desc>Created with sketchtool.</desc>
    <defs></defs>
    <g id="3.0-none-new-logo" stroke="none" stroke-width="1" fill="none" fill-rule="evenodd">
        <g id="Choice-a-category" transform="translate(-337.000000, -802.000000)" fill="#FFFFFF" fill-rule="nonzero">
            <g id="Rectangle-9" transform="translate(274.000000, 99.000000)">
                <g id="Group-7">
                    <g id="Group-5" transform="translate(30.000000, 671.000000)">
                        <g id="plant" transform="translate(33.000000, 32.000000)">
                            <path d="M21.7474687,21.6796875 C23.1716771,20.3008594 24.0625,18.3837969 24.0625,16.2597656 L24.0625,15.1757813 L22.96875,15.1757813 C20.8255833,15.1757813 18.89125,16.0586504 17.5,17.4701426 L17.5,12.1904883 C17.8941146,11.8694844 18.2938438,11.5431328 18.6578438,11.2506016 C21.7158229,8.79154688 23.9257812,7.14967188 23.9257812,4.47779492 C23.9257812,1.96685352 22.0042813,0 19.5507812,0 C18.1195729,0 17.0226146,0.615052734 16.2695312,1.40787891 C15.5154271,0.61396875 14.4184688,5.13478149e-16 12.9882083,5.13478149e-16 C10.5347813,5.13478149e-16 8.61320833,1.96685352 8.61320833,4.47779492 C8.61320833,7.14967188 10.8231667,8.79147461 13.8812187,11.2506016 C14.3311875,11.6122187 14.8170312,12.0062832 15.3125,12.4124883 L15.3125,17.4701426 C13.92125,16.0586504 11.9869167,15.1757813 9.84375,15.1757813 L8.75,15.1757813 L8.75,16.2597656 C8.75,18.3837969 9.64082292,20.3008594 11.0650313,21.6796875 L6.5625,21.6796875 L6.5625,26.015625 L26.25,26.015625 L26.25,21.6796875 L21.7474687,21.6796875 Z" id="Shape"></path>
                            <polygon id="Shape" points="4.375 10.8398437 4.375 8.671875 2.1875 8.671875 2.1875 10.8398437 0 10.8398437 0 13.0078125 2.1875 13.0078125 2.1875 15.1757812 4.375 15.1757812 4.375 13.0078125 6.5625 13.0078125 6.5625 10.8398437"></polygon>
                            <polygon id="Shape" points="32.8125 17.34375 32.8125 15.1757812 30.625 15.1757812 30.625 17.34375 28.4375 17.34375 28.4375 19.5117188 30.625 19.5117188 30.625 21.6796875 32.8125 21.6796875 32.8125 19.5117188 35 19.5117188 35 17.34375"></polygon>
                            <polygon id="Shape" points="8.9901875 28.1835938 11.1767396 37 21.6357604 37 23.8223125 28.1835938"></polygon>
                        </g>
                    </g>
                </g>
            </g>
        </g>
    </g>
</svg>