<?xml version="1.0" encoding="UTF-8"?>
<svg width="41px" height="35px" viewBox="0 0 41 35" version="1.1" xmlns="http://www.w3.org/2000/svg" xmlns:xlink="http://www.w3.org/1999/xlink">
    <!-- Generator: sketchtool 49.3 (51167) - http://www.bohemiancoding.com/sketch -->
    <title>3850D172-ADB3-40CD-8773-F44AC9AC1E47</title>
    <desc>Created with sketchtool.</desc>
    <defs></defs>
    <g id="3.0-none-new-logo" stroke="none" stroke-width="1" fill="none" fill-rule="evenodd">
        <g id="Main-page" transform="translate(-780.000000, -587.000000)" fill="#FFFFFF" fill-rule="nonzero">
            <g id="Group-4" transform="translate(669.000000, 525.000000)">
                <g id="Rectangle-6">
                    <g id="Group-5" transform="translate(81.000000, 30.000000)">
                        <g id="multiple-users-silhouette" transform="translate(30.000000, 32.000000)">
                            <path d="M24.4759877,6.13632353 C26.351358,7.33198529 27.6663951,9.35529412 27.9058148,11.7038971 C28.670642,12.0672794 29.5194938,12.27625 30.4194691,12.27625 C33.705037,12.27625 36.3680123,9.56838235 36.3680123,6.22794118 C36.3680123,2.88698529 33.705037,0.179117647 30.4194691,0.179117647 C27.165284,0.180147059 24.5255926,2.83963235 24.4759877,6.13632353 Z M20.578963,18.5211765 C23.8645309,18.5211765 26.5275062,15.8127941 26.5275062,12.4723529 C26.5275062,9.13191176 23.8640247,6.42404412 20.578963,6.42404412 C17.2939012,6.42404412 14.6294074,9.13242647 14.6294074,12.4728676 C14.6294074,15.8133088 17.2939012,18.5211765 20.578963,18.5211765 Z M23.1022346,18.9334559 L18.054679,18.9334559 C13.854963,18.9334559 10.4382963,22.4082353 10.4382963,26.67875 L10.4382963,32.9555882 L10.4539877,33.0538971 L10.8791728,33.1892647 C14.8870494,34.4626471 18.3690123,34.8872794 21.234963,34.8872794 C26.8327284,34.8872794 30.0772963,33.2644118 30.2772346,33.1609559 L30.6745802,32.9566176 L30.7170988,32.9566176 L30.7170988,26.67875 C30.7186173,22.4082353 27.3019506,18.9334559 23.1022346,18.9334559 Z M32.9437531,12.6890441 L27.9351728,12.6890441 C27.8810123,14.7267647 27.0255802,16.5616912 25.6725802,17.8813971 C29.4056049,19.0101471 32.1369136,22.5302206 32.1369136,26.6880147 L32.1369136,28.6222794 C37.0822222,28.4380147 39.9319753,27.0127941 40.1197654,26.9170588 L40.5171111,26.7122059 L40.5596296,26.7122059 L40.5596296,20.4333088 C40.5596296,16.1633088 37.142963,12.6890441 32.9437531,12.6890441 Z M10.1411728,12.2772794 C11.3048642,12.2772794 12.3875679,11.9319118 13.3047531,11.3436029 C13.5963086,9.40985294 14.6157407,7.72007353 16.072,6.56919118 C16.0780741,6.45595588 16.0887037,6.34375 16.0887037,6.22948529 C16.0887037,2.88852941 13.4252222,0.180661765 10.1411728,0.180661765 C6.85509877,0.180661765 4.19262963,2.88852941 4.19262963,6.22948529 C4.19262963,9.56889706 6.85509877,12.2772794 10.1411728,12.2772794 Z M15.483321,17.8813971 C14.1369012,16.5683824 13.2845062,14.7432353 13.2222469,12.7178676 C13.0364815,12.7039706 12.8527407,12.6890441 12.6634321,12.6890441 L7.61638272,12.6890441 C3.41666667,12.6890441 0,16.1633088 0,20.4333088 L0,26.7111765 L0.015691358,26.8079412 L0.440876543,26.9443382 C3.65608642,27.965 6.52558025,28.4354412 9.01797531,28.5836765 L9.01797531,26.6880147 C9.01898765,22.5302206 11.749284,19.0111765 15.483321,17.8813971 Z" id="Shape"></path>
                        </g>
                    </g>
                </g>
            </g>
        </g>
    </g>
</svg>